<svg xmlns="http://www.w3.org/2000/svg" width="175" height="177" viewBox="0 0 175 177"><g transform="translate(0 0.129)"><g transform="translate(0 0)"><ellipse cx="75" cy="75.5" rx="75" ry="75.5" transform="translate(13 12.871)" fill="#ff8d29"/><g transform="translate(0 -0.129)" fill="none" stroke="#ff8d29" stroke-width="2" stroke-dasharray="8"><ellipse cx="87.5" cy="88.5" rx="87.5" ry="88.5" stroke="none"/><ellipse cx="87.5" cy="88.5" rx="86.5" ry="87.5" fill="none"/></g></g><path d="M34.032,1.928A25.677,25.677,0,0,0,8.355,27.6c0,25.677,25.677,56.489,25.677,56.489S59.709,53.282,59.709,27.6A25.677,25.677,0,0,0,34.032,1.928Zm0,41.4A15.727,15.727,0,1,1,49.759,27.6,15.727,15.727,0,0,1,34.032,43.332ZM24.082,27.6a9.95,9.95,0,1,1,9.95,9.95A9.95,9.95,0,0,1,24.082,27.6Z" transform="translate(53.99 45.662)" fill="#fff"/></g></svg>