<svg xmlns="http://www.w3.org/2000/svg" width="178" height="178" viewBox="0 0 178 178"><g transform="translate(-1326 -1120)"><circle cx="76" cy="76" r="76" transform="translate(1339 1133)" fill="#21f0ff"/><g transform="translate(1326 1120)" fill="none" stroke="#21f0ff" stroke-width="1" stroke-dasharray="6"><circle cx="89" cy="89" r="89" stroke="none"/><circle cx="89" cy="89" r="88.5" fill="none"/></g><path d="M24.669,41.747a2.713,2.713,0,0,0-.837.129,15.645,15.645,0,0,1-4.855.82,15.658,15.658,0,0,1-4.857-.82,2.706,2.706,0,0,0-.836-.129A13.284,13.284,0,0,0,0,55.1a5.678,5.678,0,0,0,5.693,5.619H32.259A5.678,5.678,0,0,0,37.952,55.1,13.284,13.284,0,0,0,24.669,41.747Zm-5.693-3.8A11.385,11.385,0,1,0,7.59,26.566,11.385,11.385,0,0,0,18.976,37.952ZM70.211,0H24.669a5.8,5.8,0,0,0-5.693,5.881v5.5a15.008,15.008,0,0,1,7.59,2.111V7.59H68.313V41.747h-7.59v-7.59H45.542v7.59H36.5a15.116,15.116,0,0,1,4.707,7.59h29A5.8,5.8,0,0,0,75.9,43.456V5.881A5.8,5.8,0,0,0,70.211,0Z" transform="translate(1377 1179)" fill="#fff"/></g></svg>