<svg xmlns="http://www.w3.org/2000/svg" xmlns:xlink="http://www.w3.org/1999/xlink" width="175" height="176" viewBox="0 0 175 176"><defs><clipPath id="a"><path d="M0,2.669,100.51,0,93.269,67.585,15.287,92.247Z" transform="translate(0 0)" fill="#fff"/></clipPath></defs><g transform="translate(0.411 0.129)"><g transform="translate(0 0)"><ellipse cx="76" cy="75" rx="76" ry="75" transform="translate(11.589 12.871)" fill="#3191ff"/><g transform="translate(-0.411 -0.129)" fill="none" stroke="#3191ff" stroke-width="2" stroke-dasharray="8"><ellipse cx="87.5" cy="88" rx="87.5" ry="88" stroke="none"/><ellipse cx="87.5" cy="88" rx="86.5" ry="87" fill="none"/></g></g><g transform="translate(34.263 71.046) rotate(-19)" clip-path="url(#a)"><path d="M26.082,0,42.255,17.5,30.845,40l24.095-4.317L65.908,62.144l46.6-61.1ZM23.1,37.914l4.486-3.689L21.8,36.053l-.591-.844,2.391-2.32-3.136,1.266A31.93,31.93,0,0,0,10,87.162,31.7,31.7,0,0,1,5.85,71.435,32.726,32.726,0,0,1,26.077,41.34l1.477-3.591L24.038,39.3l-.989-1.336.052-.052Zm20.457-9.235,7.491-13.224L95.1,5.138,43.558,28.679Z" transform="translate(-21.878 12.343)" fill="#fff"/></g></g></svg>