<svg xmlns="http://www.w3.org/2000/svg" width="178" height="178" viewBox="0 0 178 178"><g transform="translate(-719 -1154)"><circle cx="76" cy="76" r="76" transform="translate(732 1167)" fill="#829bff"/><g transform="translate(719 1154)" fill="none" stroke="#829bff" stroke-width="1" stroke-dasharray="6"><circle cx="89" cy="89" r="89" stroke="none"/><circle cx="89" cy="89" r="88.5" fill="none"/></g><path d="M47.562,45.748c-1.9-.677-4.993-.711-6.364-1.236-.948-.372-2.454-.779-2.945-1.371s-.491-4.824-.491-4.824a7.793,7.793,0,0,0,1.676-2.37,26.337,26.337,0,0,0,.812-4.655s1.117.474,1.557-1.76c.372-1.93,1.083-2.945.9-4.367-.2-1.422-.982-1.083-.982-1.083s.982-1.439.982-6.331c0-5.044-3.808-10-10.935-10-7.109,0-10.951,4.976-10.951,10,0,4.892.965,6.331.965,6.331s-.8-.339-.982,1.083c-.2,1.422.508,2.437.9,4.367.44,2.251,1.557,1.76,1.557,1.76a26.591,26.591,0,0,0,.812,4.655,7.793,7.793,0,0,0,1.676,2.37s0,4.232-.491,4.824-2,1-2.945,1.354c-1.354.525-4.452.592-6.364,1.269A11.946,11.946,0,0,0,8.191,57.14H55.3A11.922,11.922,0,0,0,47.562,45.748Z" transform="translate(776.195 1210.377)" fill="#fff"/><path d="M20.58,32.637s4.045-.135,5.653-1.574c-2.624-3.978-1.2-8.616-1.743-12.949-.542-4.316-3-6.906-7.9-6.906h-.068c-4.739,0-7.3,2.573-7.837,6.906-.542,4.316.965,9.479-1.727,12.949,1.608,1.456,5.67,1.4,5.67,1.4h0s.169,2.437-.169,2.844a4.274,4.274,0,0,1-2.031.931A39.273,39.273,0,0,0,6.04,37.461a7.127,7.127,0,0,0-3.825,6.3H15.807c.372-1.354,2.928-3.775,5.416-5.044a11.366,11.366,0,0,1,4.181-.88s.643-1.016-1.473-1.4c0,0-2.911-.728-3.25-1.134C20.36,34.922,20.58,32.637,20.58,32.637Z" transform="translate(767.785 1215.246)" fill="#fff"/><path d="M29.461,32.637s-4.045-.135-5.653-1.574c2.624-3.978,1.2-8.616,1.743-12.949.542-4.316,3-6.906,7.9-6.906h.068c4.739,0,7.3,2.573,7.837,6.906.542,4.316-.965,9.479,1.727,12.949-1.608,1.456-5.67,1.4-5.67,1.4h0s-.169,2.437.169,2.844a4.274,4.274,0,0,0,2.031.931A39.273,39.273,0,0,1,44,37.461a7.127,7.127,0,0,1,3.825,6.3H34.235c-.372-1.354-2.928-3.775-5.416-5.044a11.366,11.366,0,0,0-4.181-.88s-.643-1.016,1.473-1.4c0,0,2.911-.728,3.25-1.134C29.681,34.922,29.461,32.637,29.461,32.637Z" transform="translate(798.174 1215.246)" fill="#fff"/></g></svg>