<svg xmlns="http://www.w3.org/2000/svg" width="178" height="178" viewBox="0 0 178 178"><g transform="translate(-1023 -1079)"><circle cx="76" cy="76" r="76" transform="translate(1036 1092)" fill="#ff8d29"/><g transform="translate(1023 1079)" fill="none" stroke="#ff8d29" stroke-width="1" stroke-dasharray="6"><circle cx="89" cy="89" r="89" stroke="none"/><circle cx="89" cy="89" r="88.5" fill="none"/></g><path d="M16.695,16.962A7.822,7.822,0,0,0,11.4,22.016L0,56.219l1.8,1.8L20.141,39.669a5.922,5.922,0,1,1,2.765,2.765L4.56,60.779l1.8,1.8,34.2-11.4a7.822,7.822,0,0,0,5.054-5.293l5.23-18.5L35.2,11.733Zm44.162-7.9L53.51,1.718a5.869,5.869,0,0,0-8.3,0L38.3,8.63,53.945,24.276l6.911-6.911a5.869,5.869,0,0,0,0-8.3Z" transform="translate(1081 1136.818)" fill="#fff"/></g></svg>