<svg xmlns="http://www.w3.org/2000/svg" width="244" height="245" viewBox="0 0 244 245"><g transform="translate(0.39 -0.469)"><g transform="translate(0 0)"><ellipse cx="105.5" cy="105" rx="105.5" ry="105" transform="translate(16.61 17.469)" fill="#9fbe3c"/><g transform="translate(-0.39 0.469)" fill="none" stroke="#9fbe3c" stroke-width="2" stroke-dasharray="8"><ellipse cx="122" cy="122.5" rx="122" ry="122.5" stroke="none"/><ellipse cx="122" cy="122.5" rx="121" ry="121.5" fill="none"/></g></g><path d="M70.131,0H12.376A12.379,12.379,0,0,0,0,12.376v107.26a12.379,12.379,0,0,0,12.376,12.376H70.131a12.379,12.379,0,0,0,12.376-12.376V12.376A12.379,12.379,0,0,0,70.131,0ZM41.254,123.761A8.251,8.251,0,1,1,49.5,115.51,8.242,8.242,0,0,1,41.254,123.761ZM70.131,95.915a3.1,3.1,0,0,1-3.094,3.094H15.47a3.1,3.1,0,0,1-3.094-3.094V15.47a3.1,3.1,0,0,1,3.094-3.094H67.037a3.1,3.1,0,0,1,3.094,3.094Z" transform="translate(80.513 56.528)" fill="#fff"/></g></svg>