<svg xmlns="http://www.w3.org/2000/svg" width="175" height="176" viewBox="0 0 175 176"><g transform="translate(-150 -215)"><g transform="translate(20)"><ellipse cx="76" cy="75" rx="76" ry="75" transform="translate(142 228)" fill="#fff"/><g transform="translate(130 215)" fill="none" stroke="#fff" stroke-width="2" stroke-dasharray="8"><ellipse cx="87.5" cy="88" rx="87.5" ry="88" stroke="none"/><ellipse cx="87.5" cy="88" rx="86.5" ry="87" fill="none"/></g></g><g transform="translate(200.75 269.5)"><path d="M67.86,4.5H26.55a2.5,2.5,0,0,0-2.43,2.506V11.79H8.629A6.4,6.4,0,0,0,2.25,18.169V49.683A13.165,13.165,0,0,0,15.311,62.82H57.79a12.529,12.529,0,0,0,12.5-12.454V6.93A2.437,2.437,0,0,0,67.86,4.5ZM24.12,16.65V45.81H17.741V19.566a7.416,7.416,0,0,0-.5-2.916ZM21.538,55.439a8.969,8.969,0,0,1-6.151,2.521A8.3,8.3,0,0,1,7.11,49.683V19.566a2.886,2.886,0,1,1,5.771,0V48.24a2.437,2.437,0,0,0,2.43,2.43h8.733A7.99,7.99,0,0,1,21.538,55.439ZM65.43,50.366A7.675,7.675,0,0,1,57.79,57.96H25.836a12.7,12.7,0,0,0,3.144-8.277V9.512H65.43Z" fill="#ff8d29"/><path d="M17.437,9.563h24.3v8.5h-24.3Z" transform="translate(17.617 5.872)" fill="#ff8d29"/><path d="M17.437,15.75h24.3v4.86h-24.3Z" transform="translate(17.617 13.05)" fill="#ff8d29"/><path d="M17.437,20.25h24.3v4.86h-24.3Z" transform="translate(17.617 18.27)" fill="#ff8d29"/><path d="M42.39,24.75H18.09s0,4.86-1.215,4.86H39.459C42.39,29.61,42.39,26.421,42.39,24.75Z" transform="translate(16.965 23.49)" fill="#ff8d29"/></g></g></svg>