<svg xmlns="http://www.w3.org/2000/svg" width="111.439" height="102.416" viewBox="0 0 111.439 102.416"><g transform="translate(-140 -81)"><path d="M77.161,140a4.165,4.165,0,0,1-1.81-1.341,3.359,3.359,0,0,1-.67-2.09c0-.1.014-.29.044-.559H77.25a2.031,2.031,0,0,0,.6,1.709,2.715,2.715,0,0,0,1.988.682,3.623,3.623,0,0,0,2.168-.569,1.908,1.908,0,0,0,.782-1.643,1.648,1.648,0,0,0-.391-1.106,3.312,3.312,0,0,0-.983-.771q-.592-.312-1.643-.737a21.411,21.411,0,0,1-2.212-1.05,4.423,4.423,0,0,1-1.419-1.3,3.476,3.476,0,0,1-.592-2.078,4.171,4.171,0,0,1,.715-2.425,4.59,4.59,0,0,1,1.978-1.6,6.972,6.972,0,0,1,2.849-.559,6.551,6.551,0,0,1,2.737.525,3.889,3.889,0,0,1,1.743,1.475A3.736,3.736,0,0,1,86.1,128.8H83.418a1.768,1.768,0,0,0-.559-1.531,2.626,2.626,0,0,0-1.877-.614,3.311,3.311,0,0,0-2.067.592,1.91,1.91,0,0,0-.771,1.6,1.615,1.615,0,0,0,.391,1.084,3.406,3.406,0,0,0,.994.782q.6.324,1.631.771a24.356,24.356,0,0,1,2.223,1.117,4.7,4.7,0,0,1,1.442,1.33,3.448,3.448,0,0,1,.6,2.067,3.921,3.921,0,0,1-.715,2.313,4.7,4.7,0,0,1-2.011,1.586,7.309,7.309,0,0,1-2.972.57A6.853,6.853,0,0,1,77.161,140Z" transform="translate(83.982 -3.785)" fill="#1a1818"/><path d="M111.083,133.393l1.81,9.385,5.251-9.385h2.637l-11.445,19.312-1.918-1.213,3.553-5.988-2.726-12.111Z" transform="translate(63.936 -9.186)" fill="#1a1818"/><path d="M146.726,122.5,143.8,139.035h-2.548l2.927-16.536Z" transform="translate(43.22 -2.515)" fill="#1a1818"/><path d="M161.942,122.5l-2.927,16.536h-2.548l2.927-16.536Z" transform="translate(33.902 -2.515)" fill="#1a1818"/><path d="M173.458,135.891a7.241,7.241,0,0,1,2.492-2.223,6.424,6.424,0,0,1,3.084-.794,4.8,4.8,0,0,1,2.436.569,3.933,3.933,0,0,1,1.475,1.419l.313-1.788h2.57l-2.167,12.312h-2.57l.335-1.833a6.545,6.545,0,0,1-2.022,1.453,6.072,6.072,0,0,1-2.648.581,4.847,4.847,0,0,1-2.469-.626,4.38,4.38,0,0,1-1.7-1.776,5.531,5.531,0,0,1-.615-2.648,7.177,7.177,0,0,1,.134-1.363A8.061,8.061,0,0,1,173.458,135.891Zm8.815,2.413a3.14,3.14,0,0,0-.883-2.357,3.029,3.029,0,0,0-2.2-.86,4.167,4.167,0,0,0-1.922.481,4.71,4.71,0,0,0-1.631,1.408,5.08,5.08,0,0,0-.916,2.2,4.44,4.44,0,0,0-.09.916,3.245,3.245,0,0,0,.883,2.4,2.985,2.985,0,0,0,2.2.882,4.092,4.092,0,0,0,1.922-.492,4.739,4.739,0,0,0,1.631-1.441,5.259,5.259,0,0,0,.916-2.223A4.467,4.467,0,0,0,182.273,138.3Z" transform="translate(24.408 -8.867)" fill="#1a1818"/><path d="M217.2,127.091a6.145,6.145,0,0,1,2.615-.57,5.086,5.086,0,0,1,2.514.6,4.243,4.243,0,0,1,1.687,1.709,5.364,5.364,0,0,1,.6,2.6,7.713,7.713,0,0,1-.134,1.386,8.339,8.339,0,0,1-1.352,3.319,7.367,7.367,0,0,1-2.48,2.279,6.219,6.219,0,0,1-3.072.816,4.949,4.949,0,0,1-2.436-.559,3.921,3.921,0,0,1-1.52-1.431l-.312,1.788h-2.548l2.927-16.536h2.547l-1.073,6.056A6.208,6.208,0,0,1,217.2,127.091Zm4.782,4.816a3.066,3.066,0,0,0-.883-2.335,3.1,3.1,0,0,0-2.223-.838,4.127,4.127,0,0,0-1.91.492,4.752,4.752,0,0,0-1.643,1.43,5.174,5.174,0,0,0-.916,2.212,4.438,4.438,0,0,0-.089.916,3.176,3.176,0,0,0,.883,2.368,3.005,3.005,0,0,0,2.2.871,4.089,4.089,0,0,0,1.933-.5,4.78,4.78,0,0,0,1.642-1.464,5.339,5.339,0,0,0,.916-2.235A4.434,4.434,0,0,0,221.98,131.906Z" transform="translate(0.656 -2.515)" fill="#1a1818"/><path d="M264.218,133.393l-2.168,12.312H259.5l.246-1.453a5.291,5.291,0,0,1-1.777,1.2,5.462,5.462,0,0,1-2.134.436,4.455,4.455,0,0,1-3.106-1.05,3.8,3.8,0,0,1-1.162-2.972,8.1,8.1,0,0,1,.112-1.229l1.274-7.24h2.525l-1.206,6.86a7.163,7.163,0,0,0-.09.894,2.466,2.466,0,0,0,.682,1.877,2.63,2.63,0,0,0,1.888.648,3.561,3.561,0,0,0,2.391-.838,4.107,4.107,0,0,0,1.3-2.425l1.229-7.016Z" transform="translate(-24.331 -9.186)" fill="#1a1818"/><path d="M289.39,145.153a3.9,3.9,0,0,1-1.653-1.229,2.927,2.927,0,0,1-.6-1.821,3.619,3.619,0,0,1,.045-.492h2.48a1.589,1.589,0,0,0,.514,1.408,2.4,2.4,0,0,0,1.7.559,3.643,3.643,0,0,0,1.766-.38,1.209,1.209,0,0,0,.693-1.117,1.159,1.159,0,0,0-.57-1.006,9.512,9.512,0,0,0-1.821-.849,17.839,17.839,0,0,1-1.922-.871,3.993,3.993,0,0,1-1.273-1.106,2.81,2.81,0,0,1-.536-1.754,3.049,3.049,0,0,1,.615-1.888,4.013,4.013,0,0,1,1.72-1.274,6.592,6.592,0,0,1,2.537-.458,5.821,5.821,0,0,1,2.313.436,3.69,3.69,0,0,1,1.586,1.229,3.041,3.041,0,0,1,.57,1.821,3.615,3.615,0,0,1-.023.469H295.11a1.575,1.575,0,0,0-.5-1.408,2.428,2.428,0,0,0-1.687-.536,2.714,2.714,0,0,0-1.553.4,1.257,1.257,0,0,0-.592,1.095,1.279,1.279,0,0,0,.6,1.106,9.716,9.716,0,0,0,1.855.905,15.164,15.164,0,0,1,1.855.849,4.027,4.027,0,0,1,1.229,1.073,2.674,2.674,0,0,1,.514,1.676,2.95,2.95,0,0,1-.659,1.911,4.156,4.156,0,0,1-1.821,1.251,7.475,7.475,0,0,1-2.637.436A6.011,6.011,0,0,1,289.39,145.153Z" transform="translate(-46.107 -8.867)" fill="#1a1818"/><path d="M132.291,192.216a4.158,4.158,0,0,1-1.81-1.341,3.355,3.355,0,0,1-.67-2.089c0-.1.014-.291.045-.559h2.525a2.032,2.032,0,0,0,.6,1.709,2.716,2.716,0,0,0,1.989.682,3.621,3.621,0,0,0,2.168-.57,1.906,1.906,0,0,0,.782-1.642,1.647,1.647,0,0,0-.391-1.106,3.322,3.322,0,0,0-.983-.771q-.593-.312-1.643-.737a21.221,21.221,0,0,1-2.212-1.05,4.422,4.422,0,0,1-1.419-1.3,3.476,3.476,0,0,1-.592-2.078,4.171,4.171,0,0,1,.715-2.425,4.586,4.586,0,0,1,1.978-1.6,6.972,6.972,0,0,1,2.849-.559,6.558,6.558,0,0,1,2.737.525,3.89,3.89,0,0,1,1.743,1.475,3.731,3.731,0,0,1,.525,2.223h-2.682a1.769,1.769,0,0,0-.559-1.531,2.628,2.628,0,0,0-1.877-.614,3.309,3.309,0,0,0-2.067.592,1.909,1.909,0,0,0-.771,1.6,1.614,1.614,0,0,0,.391,1.084,3.406,3.406,0,0,0,.994.782q.6.324,1.631.771a24.449,24.449,0,0,1,2.223,1.117,4.7,4.7,0,0,1,1.441,1.33,3.443,3.443,0,0,1,.6,2.067,3.921,3.921,0,0,1-.715,2.313,4.7,4.7,0,0,1-2.011,1.586,7.319,7.319,0,0,1-2.972.57A6.845,6.845,0,0,1,132.291,192.216Z" transform="translate(50.225 -35.757)" fill="#f5740e"/><path d="M165.686,197.153a4.589,4.589,0,0,1-1.844-1.833,5.465,5.465,0,0,1-.659-2.7,7.59,7.59,0,0,1,.972-3.8,7.248,7.248,0,0,1,2.682-2.726,7.371,7.371,0,0,1,3.81-1.006,5.689,5.689,0,0,1,2.771.659,4.806,4.806,0,0,1,1.888,1.833,5.3,5.3,0,0,1,.682,2.715,7.442,7.442,0,0,1-3.732,6.513,7.5,7.5,0,0,1-3.821.994A5.631,5.631,0,0,1,165.686,197.153Zm5.4-2.223a5.028,5.028,0,0,0,1.665-1.922,5.6,5.6,0,0,0,.6-2.559,3.148,3.148,0,0,0-.872-2.38,3.034,3.034,0,0,0-2.19-.838,3.881,3.881,0,0,0-2.312.726,4.875,4.875,0,0,0-1.587,1.944,6.067,6.067,0,0,0-.57,2.6,3.165,3.165,0,0,0,.815,2.324,2.836,2.836,0,0,0,2.112.827A4.046,4.046,0,0,0,171.082,194.93Z" transform="translate(29.79 -40.839)" fill="#f5740e"/><path d="M205.084,174.712l-2.927,16.535H199.61l2.927-16.535Z" transform="translate(7.485 -34.485)" fill="#f5740e"/><path d="M221.117,195.639l5.251-10.033h2.748l-6.86,12.312h-3.084l-2.5-12.312H219.4Z" transform="translate(-2.961 -41.156)" fill="#f5740e"/><path d="M259.386,186.383a4.564,4.564,0,0,1,1.374,3.486,8.15,8.15,0,0,1-.112,1.229,10.477,10.477,0,0,1-.313,1.206h-9.407a3.643,3.643,0,0,0-.022.469,2.772,2.772,0,0,0,.816,2.1,2.953,2.953,0,0,0,2.134.782,3.588,3.588,0,0,0,3.2-1.72H259.8a7.067,7.067,0,0,1-2.5,2.782,6.811,6.811,0,0,1-3.821,1.084,5.79,5.79,0,0,1-2.7-.6,4.362,4.362,0,0,1-1.81-1.732,5.222,5.222,0,0,1-.648-2.648,7.788,7.788,0,0,1,.134-1.386,8.1,8.1,0,0,1,1.363-3.341,7.048,7.048,0,0,1,2.559-2.223,7.238,7.238,0,0,1,3.341-.782A5.141,5.141,0,0,1,259.386,186.383Zm-1.241,3.508a2.453,2.453,0,0,0-.815-1.944,3.086,3.086,0,0,0-2.112-.715,3.845,3.845,0,0,0-2.458.872,4.382,4.382,0,0,0-1.5,2.369H258.1Q258.146,190.07,258.145,189.891Z" transform="translate(-22.337 -40.839)" fill="#f5740e"/><g transform="translate(151.171 86.754)"><path d="M70.438,51.065A43.5,43.5,0,0,1,112.764,40.3a41.334,41.334,0,0,1,8.268,3.277,43.705,43.705,0,0,1,21.693,26.237h1.955a45.629,45.629,0,0,0-31.32-31.283,43,43,0,0,0-8.38-1.564c-1.341-.13-2.7-.186-4.078-.186A45.6,45.6,0,0,0,61.2,60,45.885,45.885,0,0,0,55.355,82.33a45.569,45.569,0,0,0,40.5,45.23,41.063,41.063,0,0,0,5.046.3c1.229,0,2.458-.056,3.668-.167a44.929,44.929,0,0,0,23.053-8.529,45.672,45.672,0,0,0,9.236-8.938c.13-.149.242-.317.373-.484h0c-5.549,6.871-15.493,12.011-24.189,14.524a40.274,40.274,0,0,1-8.77,1.583c-1.117.112-2.235.149-3.37.149A43.72,43.72,0,0,1,57.217,82.33,43.272,43.272,0,0,1,62.8,61.009,42.344,42.344,0,0,1,70.438,51.065Z" transform="translate(-55.355 -36.783)" fill="#1a1818"/></g><g transform="translate(140 81)"><path d="M120.164,53.094A48.475,48.475,0,0,0,97.578,27.581,47.851,47.851,0,0,0,74.953,21.94a48.408,48.408,0,0,0-18.322,93.217,48.686,48.686,0,0,0,18.322,3.613,47.935,47.935,0,0,0,13.836-2.031,47.285,47.285,0,0,0,8.471-3.423,48.579,48.579,0,0,0,16.852-14.526h-2.326a46.565,46.565,0,0,1-23.3,16.108,43.675,43.675,0,0,1-8.416,1.714,42.9,42.9,0,0,1-5.121.3A46.16,46.16,0,0,1,57.5,113.5a44.7,44.7,0,0,1-8.358-4.416A46.561,46.561,0,0,1,89.2,26.018a45.735,45.735,0,0,1,7.785,3.334,46.67,46.67,0,0,1,17.356,16.217,45.328,45.328,0,0,1,4.226,8.51c.3.779.88,1.989,1.438,3.21C120.149,55.866,120.7,54.47,120.164,53.094Z" transform="translate(-26.54 -21.94)" fill="#78b52d"/></g><path d="M260.453,220.17h2.253" transform="translate(-29.771 -62.32)" fill="none"/><line x1="0.857" transform="translate(232.712 117.926)" fill="none"/><g transform="translate(147.447 92.341)"><path d="M56.921,69.833a43.605,43.605,0,0,1,71.542,4.022c.949,1.527,3.873,3.128,4.618,4.785h0a45.9,45.9,0,0,0-3.017-5.773,44.9,44.9,0,0,0-5.828-7.523,45.514,45.514,0,1,0,6.741,53.7c.093-.149.167-.317.261-.484h0c-2.011,3.482-6.629,6.647-9.5,9.422A43.53,43.53,0,0,1,76.455,137.8a42.819,42.819,0,0,1-9.05-4.525A43.627,43.627,0,0,1,47.611,96.74a43.028,43.028,0,0,1,3.11-16.126A42.2,42.2,0,0,1,56.921,69.833Z" transform="translate(-45.749 -51.193)" fill="#1a1818"/></g></g></svg>