<svg xmlns="http://www.w3.org/2000/svg" width="178" height="178" viewBox="0 0 178 178"><g transform="translate(-416 -1095)"><circle cx="76" cy="76" r="76" transform="translate(429 1108)" fill="#9fbe3c"/><g transform="translate(416 1095)" fill="none" stroke="#9fbe3c" stroke-width="1" stroke-dasharray="6"><circle cx="89" cy="89" r="89" stroke="none"/><circle cx="89" cy="89" r="88.5" fill="none"/></g><path d="M70.591,4.5H8.409A6.885,6.885,0,0,0,1.5,11.409V52.864a6.907,6.907,0,0,0,6.909,6.909H25.682v6.909H53.318V59.773H70.591a6.9,6.9,0,0,0,6.875-6.909L77.5,11.409A6.907,6.907,0,0,0,70.591,4.5Zm0,48.364H8.409V11.409H70.591ZM53.318,32.136,29.136,45.955V18.318Z" transform="translate(465.5 1148.318)" fill="#fff"/></g></svg>